<svg xmlns="http://www.w3.org/2000/svg" viewBox="0 0 900 675" role="img" aria-labelledby="title">
  <title id="title">Sub sandwich placeholder</title>
  <rect width="900" height="675" fill="#fffaf0"/>
  <rect x="58" y="70" width="784" height="535" rx="8" fill="#f5ead7"/>
  <path d="M145 375c104-101 312-149 540-106 91 17 128 52 110 91-35 78-263 109-472 87-137-14-250-34-178-72z" fill="#c2762f"/>
  <path d="M164 350c132-78 383-103 579-36 74 25 91 59 62 85-65 59-265 61-466 42-135-13-247-48-175-91z" fill="#f7d68c"/>
  <path d="M224 374c149-54 369-55 526 8" fill="none" stroke="#1d6848" stroke-width="42" stroke-linecap="round"/>
  <path d="M259 340c155-30 330-17 457 33" fill="none" stroke="#b91f24" stroke-width="36" stroke-linecap="round"/>
  <path d="M235 393c160-34 381-21 532 36" fill="none" stroke="#fff" stroke-width="20" stroke-linecap="round"/>
</svg>
